<?xml version="1.0" encoding="utf-8"?>
<!-- Generator: Adobe Illustrator 24.1.1, SVG Export Plug-In . SVG Version: 6.00 Build 0)  -->
<svg version="1.1" id="Layer_1" xmlns="http://www.w3.org/2000/svg" xmlns:xlink="http://www.w3.org/1999/xlink" x="0px" y="0px"
	 viewBox="0 0 864 846.21" style="enable-background:new 0 0 864 846.21;" xml:space="preserve">
<style type="text/css">
	.st0{fill:#FFFFFF;}
	.st1{fill:none;stroke:#1A5FD8;stroke-width:5;stroke-miterlimit:10;}
	.st2{fill:none;stroke:#000000;stroke-width:4;stroke-miterlimit:10;}
	.st3{opacity:0.26;}
	.st4{fill:#1A5FD8;stroke:#000000;stroke-width:3;stroke-miterlimit:10;}
	.st5{fill:#07080A;}
	.st6{fill:#1A5FD8;stroke:#000000;stroke-width:4;stroke-miterlimit:10;}
	.st7{fill:#E8CA7E;}
</style>
<circle class="st0" cx="432" cy="431.16" r="397.83"/>
<line class="st1" x1="470.68" y1="375.6" x2="470.68" y2="294.13"/>
<line class="st2" x1="470.68" y1="713.87" x2="470.68" y2="632.4"/>
<line class="st2" x1="598.77" y1="526.54" x2="680.24" y2="526.54"/>
<line class="st2" x1="268.32" y1="526.54" x2="349.79" y2="526.54"/>
<path class="st3" d="M339.18,316c-10.88,8.49-20.99,17.95-30.21,28.26v1.51l0.09-0.08l31.17-28.58L339.18,316z"/>
<path class="st4" d="M706.52,502.42c0,129.37-102.43,234.24-228.79,234.24c-126.36,0-228.79-104.87-228.79-234.24V125.66h60.03
	v220.12l0.09-0.08l31.17-28.58l0.76-0.69l40.02,40.02l-1.93,2c-29,20.01-51.67,48.83-64.3,82.7c-7.2,19.29-11.14,40.21-11.14,62.08
	c0,96.5,76.75,174.72,171.43,174.72c94.68,0,171.42-78.22,171.42-174.72c0-52.88-23.04-100.27-59.46-132.3l42.51-43.76
	C676.76,370.08,706.52,432.69,706.52,502.42z"/>
<path class="st5" d="M611.8,312.6l-43.04,44.31c-26.24-17.49-57.46-27.85-91.03-28.37v2.36h-13.12v-2.06
	c-23.94,1.47-46.54,7.94-66.83,18.4l-41.04-43.65c35.1-22.44,76.56-35.4,120.99-35.4C527.81,268.18,574.13,284.66,611.8,312.6z"/>
<polygon points="308.97,344.26 309.06,345.7 308.97,345.78 "/>
<path class="st6" d="M381.28,137.51c-5.26-1.92-10.52-3.83-15.78-5.75c-3.85-1.4-7.73-2.81-11.77-3.49
	c-8.81-1.47-17.76,0.64-26.64,1.59c-17.09,1.83-36.16,5.65-51.84-1.4c-5.85-2.63-13.44-0.51-17.07,4.78
	c-1.48,2.15-2.36,4.72-4.19,6.58c-2.39,2.42-6.32,3.17-9.43,1.8c-3.12-1.37-4.35-5.56-4.74-8.94c-0.7-6.03,1.42-12.34,5.62-16.73
	c4.2-4.39,10.4-6.78,16.46-6.35c28.42,2.03,57,0.84,85.33,3.86c9.67,1.03,19.48,2.34,28.38,6.28c3.56,1.58,7.1,3.73,8.96,7.14
	C386.42,130.3,384.57,135.43,381.28,137.51z"/>
<path class="st7" d="M382.01,154.32c-0.4,0.54-0.79,1.08-1.19,1.62c-2.28,3.09-4.69,6.74-3.82,10.48c0.57,2.46,2.56,4.45,4.89,5.42
	c2.74,1.13,6.05,0.91,8.49-0.76c2.44-1.67,3.86-4.82,3.26-7.72c-0.43-2.11-1.79-3.9-3.02-5.67c-1.8-2.61-3.39-5.36-4.74-8.23
	C384.51,151.19,383.33,152.53,382.01,154.32z"/>
<line class="st2" x1="470.11" y1="414.03" x2="470.11" y2="532.65"/>
<line class="st1" x1="470.11" y1="532.65" x2="543.31" y2="532.65"/>
</svg>
