<?xml version="1.0" encoding="utf-8"?>
<!-- Generator: Adobe Illustrator 25.0.0, SVG Export Plug-In . SVG Version: 6.00 Build 0)  -->
<svg version="1.1" id="Layer_1" xmlns="http://www.w3.org/2000/svg" xmlns:xlink="http://www.w3.org/1999/xlink" x="0px" y="0px"
	 viewBox="0 0 4158.9 1773.5" style="enable-background:new 0 0 4158.9 1773.5;" xml:space="preserve">
<style type="text/css">
	.st0{fill:none;stroke:#1A5FD8;stroke-width:5;stroke-miterlimit:10;}
	.st1{fill:none;stroke:#000000;stroke-width:4;stroke-miterlimit:10;}
	.st2{fill:#1A5FD8;}
	.st3{opacity:0.26;enable-background:new    ;}
	.st4{fill:#1A5FD8;stroke:#000000;stroke-width:4;stroke-miterlimit:10;}
	.st5{fill:#07080A;}
	.st6{fill:#E8CA7E;}
	.st7{fill:none;stroke:#07080A;stroke-miterlimit:10;}
	.st8{font-family:'Swiss721BT-Black';}
	.st9{font-size:314.279px;}
	.st10{letter-spacing:3;}
	.st11{font-size:360px;}
	.st12{fill:#1A5FD8;stroke:#000000;stroke-miterlimit:10;}
	.st13{font-family:'InkFree';}
	.st14{font-size:95.4703px;}
</style>
<g>
	<g>
		<path d="M1589.8,3253.3h38.5c21.2,0,32.5,11.2,32.5,27.2c0,13.1-7.9,21.6-17.1,24.2c7.9,2.2,21,9.9,21,27.3
			c0,22.1-16.6,31.9-35.8,31.9h-39.2L1589.8,3253.3L1589.8,3253.3z M1625.5,3300.8c19.1,0,26.4-7.1,26.4-19.9
			c0-10.9-7.6-19.7-23.1-19.7h-30.6v39.6H1625.5z M1598.1,3355.9h31.1c14.5,0,26.7-7.3,26.7-23.5c0-14-9-23.7-31.3-23.7h-26.5
			L1598.1,3355.9L1598.1,3355.9z"/>
		<path d="M1767.1,3325.3c0.2,20.4,10.4,33,25.6,33c14.8,0,19.9-8.4,22.7-14.8h8c-3.3,10.4-11.7,22.3-31.1,22.3
			c-24,0-33.3-20.7-33.3-40.7c0-22.6,11.2-42,34.3-42c24.3,0,32,21,32,35.8c0,2.2,0,4.4-0.2,6.5H1767.1z M1817.1,3318.3
			c-0.2-15.6-8.7-27.9-24.2-27.9c-16.3,0-23.7,11.4-25.4,27.9H1817.1z"/>
		<path d="M2068.7,3363.8v-41.5c0-0.9-0.3-2.1-0.6-2.5l-39.5-66.5h10c11,18.8,30.3,51.5,35,59.7c4.7-8.2,24.2-40.6,36-59.7h9.5
			l-41.2,67.1c-0.3,0.6-0.5,1.3-0.5,2.4v41L2068.7,3363.8L2068.7,3363.8z"/>
		<path d="M2260.4,3324.2c0,21.9-12.2,41.5-35.7,41.5c-21.3,0-34.6-17.5-34.6-41.4c0-22.6,12.5-41.4,35.4-41.4
			C2246.5,3282.9,2260.4,3299.4,2260.4,3324.2z M2198.5,3324.3c0,18.8,10.1,33.9,26.8,33.9c17.1,0,26.7-14,26.7-33.9
			c0-18.6-9.5-33.9-27-33.9C2207,3290.4,2198.5,3305.4,2198.5,3324.3z"/>
		<path d="M2417,3340.7c0,7.7,0.2,20.1,0.2,23.1h-7.6c-0.3-2.1-0.5-7.3-0.5-13.7c-3.3,9.3-11.4,15.6-25.4,15.6
			c-11.4,0-25.9-4.4-25.9-28.6v-52.3h7.7v50.4c0,11.5,3.6,22.7,19.3,22.7c17.7,0,24.3-9.9,24.3-32.5v-40.6h7.9L2417,3340.7
			L2417,3340.7z"/>
	</g>
</g>
<line class="st0" x1="707" y1="4331.3" x2="707" y2="4229.2"/>
<line class="st1" x1="705" y1="4755.6" x2="705" y2="4653.4"/>
<line class="st1" x1="865.7" y1="4520.6" x2="967.9" y2="4520.6"/>
<line class="st1" x1="451.3" y1="4520.6" x2="553.4" y2="4520.6"/>
<path class="st2" d="M1068.8,4498.3v-148.1h87.6c14.6,0,25.6,3.1,33.1,9.3s11.2,15.4,11.2,27.6c0,5.9-1.2,11.2-3.5,15.8
	c-2.3,4.6-5.6,8.4-9.9,11.3c7.9,4.6,13.8,10.1,17.8,16.8c4,6.6,6,14.2,6,22.8c0,13.7-4.5,24.5-13.5,32.5c-9,8-21.2,12-36.6,12
	H1068.8L1068.8,4498.3z M1087.2,4408.7h70.8c7.8,0,13.7-1.8,17.8-5.3c4.1-3.5,6.2-8.6,6.2-15.2c0-7-2-12.2-6-15.7
	c-4-3.5-10-5.2-18-5.2h-70.8V4408.7z M1087.2,4481.3h77.5c8.4,0,15-2.5,19.9-7.5c4.8-5,7.2-11.7,7.2-20.3c0-8.5-2.4-15.2-7.2-20.3
	c-4.8-5-11.4-7.5-19.9-7.5h-77.5V4481.3z"/>
<path class="st2" d="M1313,4502.2c-22.2,0-40.5-7.3-54.9-21.9c-14.5-14.6-21.7-33.2-21.7-55.6c0-22.5,7.2-41.1,21.7-55.8
	c14.5-14.6,32.8-21.9,54.9-21.9c22.2,0,40.6,7.3,55.2,22c14.6,14.7,21.9,33.2,21.9,55.7c0,22.4-7.3,41-21.8,55.6
	C1353.7,4494.9,1335.3,4502.2,1313,4502.2z M1313,4484.9c16.6,0,30.4-5.7,41.3-17c10.9-11.4,16.4-25.8,16.4-43.2
	c0-17.5-5.4-32-16.3-43.3c-10.9-11.4-24.7-17-41.4-17c-16.6,0-30.4,5.7-41.3,17.1c-10.9,11.4-16.4,25.8-16.4,43.3
	s5.4,31.9,16.4,43.2C1282.6,4479.2,1296.3,4484.9,1313,4484.9z"/>
<path class="st2" d="M1485.8,4350.2c23.3,0,42.2,6.9,56.4,20.7c14.3,13.8,21.4,31.7,21.4,53.8c0,22.3-7,40.1-21.1,53.5
	c-14,13.4-33,20.1-56.8,20.1h-63.5v-148.1H1485.8z M1485.8,4367.3h-45.1v114.1h45.1c18.2,0,32.6-5.1,43.1-15.4
	c10.5-10.2,15.7-24.1,15.7-41.5c0-17.2-5.3-31-16-41.5C1518,4372.5,1503.7,4367.3,1485.8,4367.3z"/>
<path class="st2" d="M1621.9,4498.3v-74.2l-66.7-73.9h23.1l53,58.5l52.7-58.5h23.3l-67.1,74.2v73.9H1621.9z"/>
<path d="M1833.2,4498.3v-131.1h-62.3v-17h143.2v17h-62.4v131.1H1833.2z"/>
<path d="M1922.3,4498.3v-148.9h18.7v148.9L1922.3,4498.3L1922.3,4498.3z"/>
<path d="M1984.7,4498.3v-148.1h17l59.8,90.7l60.2-90.7h16.8v148.1h-18.2v-115.7l-58.8,87.6l-58.8-87.6v115.7H1984.7z"/>
<path d="M2181.9,4498.3v-148.1h116.5v17h-98.1v43.5h59.3v17h-59.3v53.5h104.1v17H2181.9z"/>
<path class="st3" d="M540.1,4256.6c-13.6,10.6-26.3,22.5-37.9,35.4v1.9l0.1-0.1l39.1-35.8L540.1,4256.6z"/>
<path class="st4" d="M1000.8,4490.4c0,162.2-128.5,293.8-286.9,293.8S427,4652.6,427,4490.4v-472.5h75.3v276.1l0.1-0.1l39.1-35.8
	l1-0.9l50.2,50.2l-2.4,2.5c-36.4,25.1-64.8,61.2-80.6,103.7c-9,24.2-14,50.4-14,77.9c0,121,96.2,219.1,215,219.1
	c118.7,0,215-98.1,215-219.1c0-66.3-28.9-125.8-74.6-165.9l53.3-54.9C963.5,4324.4,1000.8,4402.9,1000.8,4490.4z"/>
<path class="st5" d="M882,4252.3l-54,55.6c-32.9-21.9-72.1-34.9-114.2-35.6v2.9h-16.5v-2.6c-30,1.8-58.4,10-83.8,23.1l-51.5-54.7
	c44-28.2,96-44.4,151.7-44.4C776.7,4196.6,834.8,4217.3,882,4252.3z"/>
<polygon points="502.2,4292 502.4,4293.8 502.2,4293.9 "/>
<path class="st4" d="M592.9,4032.7c-6.6-2.4-13.2-4.8-19.8-7.2c-4.8-1.8-9.7-3.5-14.8-4.4c-11-1.8-22.3,0.8-33.4,2
	c-21.4,2.3-45.4,7.1-65-1.8c-7.3-3.3-16.9-0.6-21.4,6c-1.8,2.7-3,5.9-5.3,8.2c-3,3-7.9,4-11.8,2.3c-3.9-1.7-5.5-7-6-11.2
	c-0.9-7.6,1.8-15.5,7-21s13.1-8.5,20.6-8c35.6,2.6,71.5,1.1,107,4.8c12.1,1.3,24.4,2.9,35.6,7.9c4.5,2,8.9,4.7,11.2,9
	C599.4,4023.7,597,4030.1,592.9,4032.7z"/>
<path class="st6" d="M593.8,4053.8c-0.5,0.7-1,1.4-1.5,2c-2.9,3.9-5.9,8.4-4.8,13.1c0.7,3.1,3.2,5.6,6.1,6.8c3.4,1.4,7.6,1.1,10.7-1
	c3.1-2.1,4.8-6.1,4.1-9.7c-0.5-2.7-2.2-4.9-3.8-7.1c-2.3-3.3-4.2-6.7-5.9-10.3C597,4049.9,595.5,4051.6,593.8,4053.8z"/>
<g>
	<g>
		<path d="M1078.4,4551h24c13.2,0,20.3,7,20.3,16.9c0,8.2-4.9,13.5-10.6,15.1c4.9,1.4,13.1,6.2,13.1,17c0,13.8-10.3,19.9-22.3,19.9
			h-24.4L1078.4,4551L1078.4,4551z M1100.7,4580.7c11.9,0,16.4-4.4,16.4-12.4c0-6.8-4.7-12.3-14.4-12.3h-19.1v24.7H1100.7z
			 M1083.7,4615h19.4c9.1,0,16.6-4.5,16.6-14.7c0-8.8-5.6-14.8-19.5-14.8h-16.5V4615L1083.7,4615z"/>
		<path d="M1189,4595.9c0.1,12.7,6.5,20.6,15.9,20.6c9.3,0,12.4-5.2,14.2-9.3h5c-2.1,6.5-7.3,13.9-19.4,13.9
			c-15,0-20.8-12.9-20.8-25.4c0-14.1,7-26.2,21.4-26.2c15.2,0,20,13.1,20,22.4c0,1.4,0,2.8-0.1,4H1189z M1220.3,4591.6
			c-0.1-9.8-5.4-17.4-15.1-17.4c-10.1,0-14.8,7.1-15.9,17.4H1220.3z"/>
		<path d="M1377.1,4619.9V4594c0-0.6-0.2-1.3-0.4-1.6l-24.6-41.5h6.2c6.9,11.7,18.9,32.1,21.9,37.2c3-5.1,15.1-25.3,22.5-37.2h5.9
			l-25.7,41.9c-0.2,0.4-0.3,0.8-0.3,1.5v25.6L1377.1,4619.9L1377.1,4619.9z"/>
		<path d="M1496.7,4595.2c0,13.7-7.6,25.9-22.3,25.9c-13.3,0-21.6-10.9-21.6-25.8c0-14.1,7.8-25.8,22.1-25.8
			C1488,4569.5,1496.7,4579.8,1496.7,4595.2z M1458.1,4595.3c0,11.7,6.3,21.2,16.7,21.2c10.6,0,16.6-8.8,16.6-21.2
			c0-11.6-5.9-21.2-16.8-21.2C1463.4,4574.2,1458.1,4583.5,1458.1,4595.3z"/>
		<path d="M1594.4,4605.6c0,4.8,0.1,12.5,0.1,14.4h-4.7c-0.2-1.3-0.3-4.5-0.3-8.6c-2.1,5.8-7.1,9.8-15.9,9.8
			c-7.1,0-16.2-2.8-16.2-17.8v-32.6h4.8v31.4c0,7.2,2.3,14.2,12,14.2c11,0,15.2-6.2,15.2-20.3v-25.3h4.9L1594.4,4605.6
			L1594.4,4605.6z"/>
	</g>
</g>
<line class="st1" x1="704.3" y1="4379.5" x2="704.3" y2="4528.3"/>
<line class="st0" x1="704.3" y1="4528.3" x2="796.1" y2="4528.3"/>
<line class="st0" x1="707" y1="6674.4" x2="707" y2="6572.2"/>
<line class="st1" x1="705" y1="7098.6" x2="705" y2="6996.4"/>
<line class="st1" x1="865.7" y1="6863.7" x2="967.9" y2="6863.7"/>
<line class="st1" x1="451.3" y1="6863.7" x2="553.4" y2="6863.7"/>
<path class="st2" d="M1068.8,6841.4v-148.1h87.6c14.6,0,25.6,3.1,33.1,9.3c7.5,6.2,11.2,15.4,11.2,27.6c0,5.9-1.2,11.2-3.5,15.8
	c-2.3,4.6-5.6,8.4-9.9,11.3c7.9,4.6,13.8,10.1,17.8,16.8c4,6.6,6,14.2,6,22.8c0,13.7-4.5,24.5-13.5,32.5s-21.2,12-36.6,12
	L1068.8,6841.4L1068.8,6841.4z M1087.2,6751.8h70.8c7.8,0,13.7-1.8,17.8-5.3c4.1-3.5,6.2-8.6,6.2-15.2c0-7-2-12.2-6-15.7
	c-4-3.5-10-5.2-18-5.2h-70.8V6751.8z M1087.2,6824.4h77.5c8.4,0,15-2.5,19.9-7.5c4.8-5,7.2-11.7,7.2-20.3c0-8.5-2.4-15.2-7.2-20.3
	c-4.8-5-11.4-7.5-19.9-7.5h-77.5V6824.4z"/>
<path class="st2" d="M1313,6845.3c-22.2,0-40.5-7.3-54.9-21.9c-14.5-14.6-21.7-33.2-21.7-55.6c0-22.5,7.2-41.1,21.7-55.8
	c14.5-14.6,32.8-21.9,54.9-21.9c22.2,0,40.6,7.3,55.2,22c14.6,14.7,21.9,33.2,21.9,55.7s-7.3,41-21.8,55.6
	C1353.7,6838,1335.3,6845.3,1313,6845.3z M1313,6828c16.6,0,30.4-5.7,41.3-17c10.9-11.4,16.4-25.8,16.4-43.2
	c0-17.5-5.4-32-16.3-43.3c-10.9-11.4-24.7-17-41.4-17c-16.6,0-30.4,5.7-41.3,17.1c-10.9,11.4-16.4,25.8-16.4,43.3
	s5.4,31.9,16.4,43.2C1282.6,6822.3,1296.3,6828,1313,6828z"/>
<path class="st2" d="M1485.8,6693.3c23.3,0,42.2,6.9,56.4,20.7c14.3,13.8,21.4,31.7,21.4,53.8c0,22.3-7,40.1-21.1,53.5
	c-14,13.4-33,20.1-56.8,20.1h-63.5v-148.1H1485.8z M1485.8,6710.3h-45.1v114.1h45.1c18.2,0,32.6-5.1,43.1-15.4
	c10.5-10.2,15.7-24.1,15.7-41.5c0-17.2-5.3-31-16-41.5C1518,6715.5,1503.7,6710.3,1485.8,6710.3z"/>
<path class="st2" d="M1621.9,6841.4v-74.2l-66.7-73.9h23.1l53,58.5l52.7-58.5h23.3l-67.1,74.2v73.9H1621.9z"/>
<path d="M1833.2,6841.4v-131.1h-62.3v-17h143.2v17h-62.4v131.1H1833.2z"/>
<path d="M1922.3,6841.4v-148.9h18.7v148.9L1922.3,6841.4L1922.3,6841.4z"/>
<path d="M1984.7,6841.4v-148.1h17l59.8,90.7l60.2-90.7h16.8v148.1h-18.2v-115.7l-58.8,87.6l-58.8-87.6v115.7H1984.7z"/>
<path d="M2181.9,6841.4v-148.1h116.5v17h-98.1v43.5h59.3v17h-59.3v53.5h104.1v17H2181.9z"/>
<path class="st3" d="M540.1,6599.6c-13.6,10.6-26.3,22.5-37.9,35.4v1.9l0.1-0.1l39.1-35.8L540.1,6599.6z"/>
<path class="st4" d="M1000.8,6833.4c0,162.2-128.5,293.8-286.9,293.8S427,6995.7,427,6833.4v-472.5h75.3V6637l0.1-0.1l39.1-35.8
	l1-0.9l50.2,50.2l-2.4,2.5c-36.4,25.1-64.8,61.2-80.6,103.7c-9,24.2-14,50.4-14,77.9c0,121,96.2,219.1,215,219.1
	c118.7,0,215-98.1,215-219.1c0-66.3-28.9-125.8-74.6-165.9l53.3-54.9C963.5,6667.5,1000.8,6746,1000.8,6833.4z"/>
<path class="st5" d="M882,6595.4l-54,55.6c-32.9-21.9-72.1-34.9-114.2-35.6v2.9h-16.5v-2.6c-30,1.8-58.4,10-83.8,23.1l-51.5-54.7
	c44-28.1,96-44.4,151.7-44.4C776.7,6539.7,834.8,6560.3,882,6595.4z"/>
<polygon points="502.2,6635.1 502.4,6636.9 502.2,6637 "/>
<path class="st4" d="M592.9,6375.8c-6.6-2.4-13.2-4.8-19.8-7.2c-4.8-1.8-9.7-3.5-14.8-4.4c-11-1.8-22.3,0.8-33.4,2
	c-21.4,2.3-45.4,7.1-65-1.8c-7.3-3.3-16.9-0.6-21.4,6c-1.8,2.7-3,5.9-5.3,8.2c-3,3-7.9,4-11.8,2.3s-5.5-7-6-11.2
	c-0.9-7.6,1.8-15.5,7-21c5.3-5.5,13.1-8.5,20.6-8c35.6,2.5,71.5,1.1,107,4.8c12.1,1.3,24.4,2.9,35.6,7.9c4.5,2,8.9,4.7,11.2,9
	C599.4,6366.8,597,6373.2,592.9,6375.8z"/>
<path class="st6" d="M593.8,6396.9c-0.5,0.7-1,1.4-1.5,2c-2.9,3.9-5.9,8.4-4.8,13.1c0.7,3.1,3.2,5.6,6.1,6.8c3.4,1.4,7.6,1.1,10.7-1
	c3.1-2.1,4.8-6,4.1-9.7c-0.5-2.6-2.2-4.9-3.8-7.1c-2.3-3.3-4.2-6.7-5.9-10.3C597,6392.9,595.5,6394.6,593.8,6396.9z"/>
<g>
	<g>
		<path d="M1078.4,6894.1h24c13.2,0,20.3,7,20.3,16.9c0,8.2-4.9,13.5-10.6,15.1c4.9,1.4,13.1,6.2,13.1,17
			c0,13.8-10.3,19.9-22.3,19.9h-24.4L1078.4,6894.1L1078.4,6894.1z M1100.7,6923.7c11.9,0,16.4-4.4,16.4-12.4
			c0-6.8-4.7-12.3-14.4-12.3h-19.1v24.7H1100.7z M1083.7,6958.1h19.4c9.1,0,16.6-4.5,16.6-14.7c0-8.8-5.6-14.8-19.5-14.8h-16.5
			V6958.1L1083.7,6958.1z"/>
		<path d="M1189,6939c0.1,12.7,6.5,20.6,15.9,20.6c9.3,0,12.4-5.2,14.2-9.3h5c-2.1,6.5-7.3,13.9-19.4,13.9
			c-15,0-20.8-12.9-20.8-25.4c0-14.1,7-26.2,21.4-26.2c15.2,0,20,13.1,20,22.4c0,1.4,0,2.8-0.1,4H1189z M1220.3,6934.6
			c-0.1-9.8-5.4-17.4-15.1-17.4c-10.1,0-14.8,7.1-15.9,17.4H1220.3z"/>
		<path d="M1377.1,6963v-25.9c0-0.6-0.2-1.3-0.4-1.6l-24.6-41.5h6.2c6.9,11.7,18.9,32.1,21.9,37.2c3-5.1,15.1-25.3,22.5-37.2h5.9
			l-25.7,41.9c-0.2,0.4-0.3,0.8-0.3,1.5v25.6L1377.1,6963L1377.1,6963z"/>
		<path d="M1496.7,6938.3c0,13.7-7.6,25.9-22.3,25.9c-13.3,0-21.6-10.9-21.6-25.8c0-14.1,7.8-25.8,22.1-25.8
			C1488,6912.6,1496.7,6922.8,1496.7,6938.3z M1458.1,6938.4c0,11.7,6.3,21.2,16.7,21.2c10.6,0,16.6-8.8,16.6-21.2
			c0-11.6-5.9-21.2-16.8-21.2C1463.4,6917.2,1458.1,6926.6,1458.1,6938.4z"/>
		<path d="M1594.4,6948.6c0,4.8,0.1,12.5,0.1,14.4h-4.7c-0.2-1.3-0.3-4.5-0.3-8.6c-2.1,5.8-7.1,9.8-15.9,9.8
			c-7.1,0-16.2-2.8-16.2-17.8v-32.6h4.8v31.4c0,7.2,2.3,14.2,12,14.2c11,0,15.2-6.2,15.2-20.3v-25.3h4.9L1594.4,6948.6
			L1594.4,6948.6z"/>
	</g>
</g>
<line class="st1" x1="704.3" y1="6722.6" x2="704.3" y2="6871.3"/>
<line class="st0" x1="704.3" y1="6871.3" x2="796.1" y2="6871.3"/>
<g>
	<path d="M516,1027.7c0.7-11.8,1.4-29.3,1.4-44.7V773.8h31.1v108.7h0.7c11.1-19.3,31.1-31.8,59-31.8c42.9,0,73.3,35.8,72.9,88.3
		c0,61.9-39,92.6-77.6,92.6c-25,0-45.1-9.7-57.9-32.5h-1.1l-1.4,28.6H516z M548.6,958.3c0,3.9,0.7,7.9,1.4,11.4
		c6.1,21.8,24.3,36.8,47.2,36.8c32.9,0,52.6-26.8,52.6-66.5c0-34.7-17.9-64.4-51.5-64.4c-21.5,0-41.5,14.7-47.9,38.6
		c-0.7,3.6-1.8,7.9-1.8,12.9V958.3z"/>
	<path d="M1112.1,773.8V983c0,15.4,0.4,32.9,1.4,44.7h-28.2l-1.4-30h-0.7c-9.7,19.3-30.7,34-59,34c-41.8,0-74-35.4-74-88
		c-0.4-57.6,35.4-93,77.6-93c26.5,0,44.3,12.5,52.2,26.5h0.7V773.8H1112.1z M1080.6,925c0-3.9-0.4-9.3-1.4-13.2
		c-4.6-20-21.8-36.5-45.4-36.5c-32.5,0-51.8,28.6-51.8,66.9c0,35,17.2,64,51.1,64c21.1,0,40.4-13.9,46.1-37.5
		c1.1-4.3,1.4-8.6,1.4-13.6V925z"/>
	<path d="M1179.3,854.6l37.9,102.3c3.9,11.4,8.2,25,11.1,35.4h0.7c3.2-10.4,6.8-23.6,11.1-36.1l34.3-101.5h33.3L1260.4,978
		c-22.5,59.4-37.9,89.7-59.4,108.3c-15.4,13.6-30.7,19-38.6,20.4l-7.9-26.5c7.9-2.5,18.2-7.5,27.5-15.4c8.6-6.8,19.3-19,26.5-35
		c1.4-3.2,2.5-5.7,2.5-7.5c0-1.8-0.7-4.3-2.1-8.2l-64-159.5H1179.3z"/>
	<path d="M1377.7,804.9v49.7h45.1v24h-45.1v93.3c0,21.5,6.1,33.6,23.6,33.6c8.2,0,14.3-1.1,18.2-2.1l1.4,23.6
		c-6.1,2.5-15.7,4.3-27.9,4.3c-14.7,0-26.5-4.6-34-13.2c-8.9-9.3-12.2-24.7-12.2-45.1v-94.4h-26.8v-24h26.8v-41.5L1377.7,804.9z"/>
	<rect x="1460.5" y="854.6" width="31.5" height="173.1"/>
	<path d="M1549,901.5c0-17.9-0.4-32.5-1.4-46.8h27.5l1.4,27.9h1.1c9.7-16.4,25.7-31.8,54.3-31.8c23.6,0,41.5,14.3,49,34.7h0.7
		c5.4-9.7,12.2-17.2,19.3-22.5c10.4-7.9,21.8-12.2,38.3-12.2c22.9,0,56.9,15,56.9,75.1v101.9h-30.7v-98c0-33.3-12.2-53.3-37.5-53.3
		c-17.9,0-31.8,13.2-37.2,28.6c-1.4,4.3-2.5,10-2.5,15.7v106.9h-30.7V924c0-27.5-12.2-47.6-36.1-47.6c-19.7,0-34,15.7-39,31.5
		c-1.8,4.6-2.5,10-2.5,15.4v104.4H1549V901.5z"/>
	<path d="M1868.3,946.9c0.7,42.5,27.9,60.1,59.4,60.1c22.5,0,36.1-3.9,47.9-8.9l5.4,22.5c-11.1,5-30,10.7-57.6,10.7
		c-53.3,0-85.1-35-85.1-87.2s30.7-93.3,81.2-93.3c56.5,0,71.5,49.7,71.5,81.5c0,6.4-0.7,11.4-1.1,14.7H1868.3z M1960.5,924.3
		c0.4-20-8.2-51.1-43.6-51.1c-31.8,0-45.8,29.3-48.3,51.1H1960.5z"/>
	<path class="st4" d="M1469.2,798.7c-0.9,1.2-1.7,2.3-2.5,3.5c-4.9,6.6-10,14.4-8.2,22.5c1.2,5.3,5.5,9.5,10.5,11.6
		c5.9,2.4,13,1.9,18.2-1.6c5.2-3.6,8.3-10.3,7-16.6c-0.9-4.5-3.8-8.4-6.5-12.1c-3.9-5.6-7.3-11.5-10.1-17.6
		C1474.6,792,1472,794.9,1469.2,798.7z"/>
	<g>
		<line class="st0" x1="818.2" y1="863.4" x2="818.2" y2="825.3"/>
		<line class="st1" x1="817.5" y1="1021.8" x2="817.5" y2="983.6"/>
		<line class="st1" x1="877.4" y1="934.1" x2="915.6" y2="934.1"/>
		<line class="st1" x1="722.7" y1="934.1" x2="760.9" y2="934.1"/>
		<path class="st3" d="M755.9,835.5c-5.1,4-9.8,8.4-14.1,13.2v0.7l0,0l14.6-13.4L755.9,835.5z"/>
		<path class="st4" d="M927.9,922.8c0,60.6-47.9,109.6-107.1,109.6c-0.1,0-0.2,0-0.4,0c-53.9-0.2-98.4-41.1-105.7-94.3
			c-0.1-0.9-0.2-1.7-0.3-2.6c-0.1-0.6-0.1-1.2-0.2-1.9c0-0.4-0.1-0.7-0.1-1.1c0-0.5-0.1-0.9-0.1-1.4c-0.1-0.9-0.1-1.8-0.2-2.7
			c0-0.1,0-0.2,0-0.3c0-0.9-0.1-1.7-0.1-2.6c0-0.9,0-1.9,0-2.8c0-28.7,10.7-54.8,28.1-74.3v1l0,0l14.6-13.4l0,0l0.4-0.3l18.7,18.7
			l-0.9,0.9c-13.6,9.4-24.2,22.9-30.1,38.7c-3.4,9-5.2,18.8-5.2,29.1c0,45.2,35.9,81.8,80.2,81.8c44.3,0,80.2-36.6,80.2-81.8
			c0-24.8-10.8-46.9-27.8-61.9l19.4-19.9l0.5-0.6C913.9,860.8,927.9,890.1,927.9,922.8z"/>
		<path class="st5" d="M883.5,833.9l-20.1,20.7c-12.3-8.2-26.9-13-42.6-13.3v1.1h-6.1v-1c-11.2,0.7-21.8,3.7-31.3,8.6l-19.2-20.4
			c16.4-10.5,35.8-16.6,56.6-16.6C844.2,813.1,865.9,820.8,883.5,833.9z"/>
		<polygon points="741.8,848.7 741.8,849.4 741.8,849.4 		"/>
		<line class="st1" x1="817.2" y1="881.4" x2="817.2" y2="936.9"/>
		<line class="st0" x1="817.2" y1="936.9" x2="851.5" y2="936.9"/>
		<path class="st7" d="M926.4,922.7c0,60.5-47.4,109.5-106,109.7c-0.1,0-0.2,0-0.4,0c-53.7,0-98.1-41-105.3-94.3
			c-0.1-0.9-0.2-1.7-0.3-2.6c-0.1-0.6-0.1-1.2-0.2-1.9c0-0.4-0.1-0.7-0.1-1.1c0-0.5-0.1-0.9-0.1-1.4c-0.1-0.9-0.1-1.8-0.2-2.7
			c0-0.1,0-0.2,0-0.3c0-0.9-0.1-1.7-0.1-2.6c0-0.9,0-1.9,0-2.8c0-28.7,10.7-54.8,28.1-74.3c19.4-21.8,47.3-35.4,78.3-35.4
			c4.2,0,8.4,0.3,12.5,0.8c18.8,2.3,36,9.6,50.5,20.6c2.8,2.2,5.6,4.5,8.2,6.9C912.8,861.4,926.4,890.4,926.4,922.7z"/>
	</g>
</g>
<text transform="matrix(1 0 0 1 802.3813 2718.1858)" class="st13" style="stroke:#000000;stroke-width:17;stroke-miterlimit:10; font-size:651.3656px; letter-spacing:6;">bodytime</text>
<text transform="matrix(1 0 0 1 -2445.8901 -399.3983)" class="st8 st9 st10">bodytime</text>
<g>
	<text transform="matrix(1 0 0 1 2271.7471 418.5837)"><tspan x="0" y="0" class="st8 st9 st10">b  d</tspan><tspan x="644.5" y="0" class="st8 st11 st10">y</tspan><tspan x="859.4" y="0" class="st8 st9 st10">time</tspan></text>
</g>
<line class="st0" x1="2581.5" y1="292.8" x2="2581.5" y2="262.8"/>
<line class="st1" x1="2580.9" y1="417.2" x2="2580.9" y2="387.2"/>
<line class="st1" x1="2628" y1="348.3" x2="2658" y2="348.3"/>
<line class="st1" x1="2506.5" y1="348.3" x2="2536.5" y2="348.3"/>
<path class="st3" d="M2532.6,270.9c-4,3.1-7.7,6.6-11.1,10.4v0.6l0,0l11.5-10.5L2532.6,270.9z"/>
<path d="M2667.6,339.4c0,47.6-37.7,86.1-84.1,86.1c-0.1,0-0.2,0-0.3,0c-42.3-0.1-77.3-32.3-83-74.1c-0.1-0.7-0.2-1.4-0.3-2
	c-0.1-0.5-0.1-1-0.2-1.5c0-0.3-0.1-0.6-0.1-0.9c0-0.4-0.1-0.7-0.1-1.1c-0.1-0.7-0.1-1.4-0.1-2.2c0-0.1,0-0.2,0-0.2
	c0-0.7-0.1-1.3-0.1-2c0-0.7,0-1.5,0-2.2c0-22.5,8.4-43,22.1-58.4v0.8l0,0l11.5-10.5l0,0l0.3-0.3l14.7,14.7l-0.7,0.7
	c-10.7,7.4-19,18-23.6,30.4c-2.6,7.1-4.1,14.8-4.1,22.8c0,35.5,28.2,64.2,63,64.2c34.8,0,63-28.8,63-64.2c0-19.4-8.5-36.9-21.9-48.6
	l15.2-15.7l0.4-0.4C2656.7,290.8,2667.6,313.8,2667.6,339.4z"/>
<path class="st12" d="M2632.8,269.6l-15.8,16.3c-9.6-6.4-21.1-10.2-33.5-10.4v0.9h-4.8v-0.8c-8.8,0.5-17.1,2.9-24.6,6.8l-15.1-16
	c12.9-8.3,28.2-13,44.5-13C2601.9,253.3,2619,259.4,2632.8,269.6z"/>
<polygon points="2521.5,281.3 2521.5,281.8 2521.5,281.8 "/>
<line class="st1" x1="2580.7" y1="306.9" x2="2580.7" y2="350.5"/>
<line class="st0" x1="2580.7" y1="350.5" x2="2607.6" y2="350.5"/>
<text transform="matrix(1 0 0 1 2825.2656 499.3074)" class="st13 st14">be     ou</text>
<g>
	<g>
		<text transform="matrix(1 0 0 1 187.141 446.5614)"><tspan x="0" y="0" class="st8 st9 st10">b  d</tspan><tspan x="644.5" y="0" class="st8 st11 st10">y</tspan><tspan x="859.4" y="0" class="st8 st9 st10">time</tspan></text>
	</g>
	<g>
		<line class="st0" x1="496.9" y1="320.8" x2="496.9" y2="290.8"/>
		<line class="st1" x1="496.3" y1="445.1" x2="496.3" y2="415.2"/>
		<line class="st1" x1="543.4" y1="376.3" x2="573.4" y2="376.3"/>
		<line class="st1" x1="421.9" y1="376.3" x2="451.9" y2="376.3"/>
		<path class="st3" d="M448,298.9c-4,3.1-7.7,6.6-11.1,10.4v0.6l0,0l11.5-10.5L448,298.9z"/>
		<path class="st4" d="M583,367.4c0,47.6-37.7,86.1-84.1,86.1c-0.1,0-0.2,0-0.3,0c-42.3-0.1-77.3-32.3-83-74.1
			c-0.1-0.7-0.2-1.4-0.3-2c-0.1-0.5-0.1-1-0.2-1.5c0-0.3-0.1-0.6-0.1-0.9c0-0.4-0.1-0.7-0.1-1.1c-0.1-0.7-0.1-1.4-0.1-2.2
			c0-0.1,0-0.2,0-0.2c0-0.7-0.1-1.3-0.1-2c0-0.7,0-1.5,0-2.2c0-22.5,8.4-43,22.1-58.4v0.8l0,0l11.5-10.5l0,0l0.3-0.3l14.7,14.7
			l-0.7,0.7c-10.7,7.4-19,18-23.6,30.4c-2.6,7.1-4.1,14.8-4.1,22.8c0,35.5,28.2,64.2,63,64.2c34.8,0,63-28.8,63-64.2
			c0-19.4-8.5-36.9-21.9-48.6l15.2-15.7l0.4-0.4C572.1,318.7,583,341.8,583,367.4z"/>
		<path class="st5" d="M548.2,297.6l-15.8,16.3c-9.6-6.4-21.1-10.2-33.5-10.4v0.9h-4.8v-0.8c-8.8,0.5-17.1,2.9-24.6,6.8l-15.1-16
			c12.9-8.3,28.1-13,44.5-13C517.3,281.3,534.4,287.3,548.2,297.6z"/>
		<polygon points="436.9,309.2 436.9,309.8 436.9,309.8 		"/>
		<line class="st1" x1="496.1" y1="334.9" x2="496.1" y2="378.5"/>
		<line class="st0" x1="496.1" y1="378.5" x2="523" y2="378.5"/>
		<path class="st7" d="M581.9,367.4c0,47.5-37.2,86-83.2,86.2c-0.1,0-0.2,0-0.3,0c-42.2,0-77-32.2-82.7-74.1c-0.1-0.7-0.2-1.4-0.3-2
			c-0.1-0.5-0.1-1-0.2-1.5c0-0.3-0.1-0.6-0.1-0.9c0-0.4-0.1-0.7-0.1-1.1c-0.1-0.7-0.1-1.4-0.1-2.2c0-0.1,0-0.2,0-0.2
			c0-0.7-0.1-1.3-0.1-2c0-0.7,0-1.5,0-2.2c0-22.5,8.4-43,22.1-58.4c15.3-17.1,37.2-27.8,61.5-27.8c3.3,0,6.6,0.2,9.8,0.6
			c14.7,1.8,28.3,7.5,39.7,16.2c2.2,1.7,4.4,3.5,6.4,5.4C571.2,319.2,581.9,342,581.9,367.4z"/>
	</g>
</g>
<text transform="matrix(1 0 0 1 740.6595 527.2851)" class="st13 st14">be     ou</text>
</svg>
