<?xml version="1.0" encoding="utf-8"?>
<!-- Generator: Adobe Illustrator 24.1.1, SVG Export Plug-In . SVG Version: 6.00 Build 0)  -->
<svg version="1.1" id="Layer_1" xmlns="http://www.w3.org/2000/svg" xmlns:xlink="http://www.w3.org/1999/xlink" x="0px" y="0px"
	 viewBox="0 0 500.3 668.7" style="enable-background:new 0 0 500.3 668.7;" xml:space="preserve">
<style type="text/css">
	.st0{fill:#F9ACF4;stroke:#6A1F75;stroke-miterlimit:10;}
	.st1{fill:#D36DFF;stroke:#58306D;stroke-miterlimit:10;}
	.st2{fill:none;stroke:#000000;stroke-width:2;stroke-linecap:round;stroke-linejoin:round;stroke-miterlimit:10;}
	.st3{fill:none;}
	.st4{fill:none;stroke:#000000;stroke-width:4;stroke-miterlimit:10;}
	.st5{fill:#1A5FD8;stroke:#000000;stroke-width:2;stroke-miterlimit:10;}
	.st6{fill:none;stroke:#1A5FD8;stroke-width:3;stroke-miterlimit:10;}
	.st7{fill:none;stroke:#1A5FD8;stroke-width:5;stroke-miterlimit:10;}
	.st8{opacity:0.26;enable-background:new    ;}
	.st9{fill:#1A5FD8;stroke:#000000;stroke-width:3;stroke-miterlimit:10;}
	.st10{fill:#07080A;}
	.st11{fill:#E8CA7E;}
</style>
<path class="st0" d="M176.2,102.9c-5,2.3-7.9,6.6-10.4,11.1c-10.1,18.3-3.4,40.8,15.8,49.9c17,8,36.8,2.2,46.4-14.8
	c3.1-5.4,4.7-11.3,4.7-17.4c-0.1-11.7-5-21.2-14.2-28.5c-4.4-3.5-9.6-5.2-14.9-6.9c-1-0.3-2.2,0-3.2,0.6"/>
<path class="st1" d="M184.5,123.2c3.2,3.4,7,4.9,11.7,4.1c1.8-0.3,4-0.7,5.7-1.3c3.5-1.2,6-3.5,8.2-6.3c4.6-6,11.1-6.1,14.4-0.6
	c1.6,2.7,2.3,6.2,2.6,9.4c1.3,16.6-9.3,29.5-23.6,32.6c-18.2,3.9-34.3-8.4-36.6-25.9c-0.6-4.7-0.9-9.8,3.7-13.3
	C174.6,118.9,181,119.5,184.5,123.2z"/>
<path class="st2" d="M164.2,76.7c0.1-1.9-0.9-3.2-2.5-4.1c-4-2.4-8-4-13-2.9c-5.1,1.1-8.9,8.3-6.9,13.4c1.2,3,4.1,3.6,6.9,3.8
	c4.8,0.3,9.2-1.5,12.9-4.4c1.6-1.3,1.4-3.7,2.6-5.3"/>
<path class="st2" d="M187.6,84.3c-0.4-1.9,0.9-3.8,0-5.7c0.6,0,0.5-0.7,0.5-0.8c1.4-2.8,0.9-5.2-1.2-6.4c-1.7-1-4.9-0.1-6.6,1.9
	c-0.6,0.7-1.2,1.5-1.9,2.3c-2.2-1-4-0.6-6,0.8c-2.1,1.4-0.9,3.6-2.2,5.3c2,1,2.6,3.9,5.4,3.6"/>
<path class="st2" d="M225.2,124.1c-5.9,8.3-14.7,11.5-25,9.6c-4.5-0.9-8.1-2.8-10.7-6.4"/>
<path class="st2" d="M198.4,97.9c-0.4-0.9-1-1.5-1.3-2.5c-1.2-3.7-4.3-4.9-8.2-3.9c-4.2,1.1-8.5,2.6-12.9,1.6
	c-3.7-0.8-4.1-2.6-1.6-5.4c0.6-0.7,2-0.8,1.6-2.2"/>
<path class="st2" d="M201.8,129.8c-0.7-3.8-2.1-7.4-4.5-10.4c-3-3.9-5.6-8.1-6.6-13c-1,0.3-2.5,0.3-3.5,0.6c0.9,5.4,3.5,10,6.9,14.3
	c2.1,2.6,3,5.6,3.5,8.9c0.2,1.5,0.8,2.6,0.6,4.1c-0.3,3.9-0.3,7.8,0.3,11.7c0.4,2.3,1,4.5,2.8,6"/>
<path class="st2" d="M202.2,134.9c-0.6,5.4-0.5,10.6,2.2,15.6c-0.1,1.6-2.2,1.1-2.5,2.5"/>
<path class="st2" d="M192.7,94.4c-5,3.1-10.5,3.8-16.1,3.3c-1.9-0.2-4-2-2.9-4.9"/>
<path class="st2" d="M211.6,69.1c-4.3,1.8-8.7,2.7-13.3,3.5"/>
<path class="st2" d="M216.1,78.9c-0.5-0.8-0.6-2-1.6-2.4c-5.6,0.4-11.1,0.8-16.7,1.2"/>
<path class="st2" d="M176.5,98.2c0,1.3,0,2.5,0,3.8c0.1,3,1.1,4.2,3.8,4.7c5.9,1.1,11.3-0.7,16.5-3.4c1.2-0.6,1.2-1.5,1.3-2.6
	c0.1-1-0.4-2.4,1.2-2.9"/>
<path class="st2" d="M229.4,61.8c-2.2-0.9-2.2-1-3.5-3.8c-0.3-0.7-0.5-1.6-1.6-1.9c-2.1-0.7-4.3-0.8-6.1-2.5c-0.3-0.3-1.6-0.3-1.8,0
	c-1.3,1.9-3,3-5.1,3.8c-0.4,0.2-0.8,0.8-0.9,1.2c-0.2,0.6-0.6,1.5-0.3,1.8c2.1,2.4-1.9,5.9,1.5,8"/>
<path class="st2" d="M176.2,85.8c1.6,0.1,3.2,0,4.7,0.4c1.9,0.5,3.1,0.1,4.8-0.9c2.7-1.6,6.1-0.3,9.1-0.3c0.7,0,2.1,2.1,1.3,3.9
	c-0.4,1-0.7,2-1.3,2.8"/>
<path class="st2" d="M229.4,73.2c4,3.6,3.9,5.4-0.3,8.9c-1.2,1-1,2.4-1,3.8"/>
<path class="st2" d="M214.8,81.4c-2.1,2.5-2.1,3.6,0,7"/>
<path class="st2" d="M170.9,76.7c-1.3-1.1-2.5-2.1-4.2-0.4c-0.4,0.4-1.4,0.3-2.2,0.4"/>
<path class="st2" d="M219.2,71.3c-1.5,1.7-3.1,3.3-4.1,5.4"/>
<path class="st2" d="M163,81.7c1.2-0.2,2.4,0.2,3.5,0.6c1.4,0.6,2.8,0.5,4.1-0.3"/>
<path class="st2" d="M211,77.3c-0.4,2.2,0.4,3.8,2.5,4.7"/>
<path class="st2" d="M204.1,129.5c-2.7,1-5.4,1.3-8.2,0.6"/>
<path class="st2" d="M212.3,68.7c1.6-0.5,2.3,1.7,3.8,1.3"/>
<rect x="137.3" y="47.5" class="st3" width="101.2" height="124.7"/>
<image style="overflow:visible;" width="159" height="196" xlink:href="FCC6CC34.png"  transform="matrix(0.6364 0 0 0.6364 267.9138 43.4645)">
</image>
<g>
	<g>
		<line class="st4" x1="370.2" y1="416.4" x2="451.7" y2="416.4"/>
		<polygon points="359.7,415.7 372.5,423.1 372.5,408.3 		"/>
	</g>
	<g>
		<line class="st4" x1="39.8" y1="415.7" x2="121.3" y2="415.7"/>
		<polygon points="132.7,415.1 119.5,408.3 120.3,423.2 		"/>
	</g>
</g>
<path class="st5" d="M152.7,46.4c-5.3-1.9-10.5-3.8-15.8-5.8c-3.9-1.4-7.7-2.8-11.8-3.5c-8.8-1.5-17.8,0.6-26.6,1.6
	c-17.1,1.8-36.2,5.7-51.8-1.4c-5.8-2.6-13.4-0.5-17.1,4.8c-1.5,2.2-2.4,4.7-4.2,6.6c-2.4,2.4-6.3,3.2-9.4,1.8s-4.3-5.6-4.7-8.9
	c-0.7-6,1.4-12.3,5.6-16.7s10.4-6.8,16.5-6.3c28.4,2,57,0.8,85.3,3.9c9.7,1,19.5,2.3,28.4,6.3c3.6,1.6,7.1,3.7,9,7.1
	C157.9,39.2,156,44.3,152.7,46.4z"/>
<line class="st6" x1="240.1" y1="440" x2="298.6" y2="483.9"/>
<line class="st7" x1="242.1" y1="284.5" x2="242.1" y2="203"/>
<line class="st4" x1="242.1" y1="622.7" x2="242.1" y2="541.3"/>
<path class="st8" d="M110.6,224.9c-10.9,8.5-21,18-30.2,28.3v1.5l0.1-0.1l31.2-28.6L110.6,224.9z"/>
<path class="st9" d="M478,411.3c0,129.4-102.4,234.2-228.8,234.2S20.4,540.6,20.4,411.3V34.5h60v220.1l0.1-0.1l31.2-28.6l0.8-0.7
	l40,40l-1.9,2c-29,20-51.7,48.8-64.3,82.7c-7.2,19.3-11.1,40.2-11.1,62.1c0,96.5,76.8,174.7,171.4,174.7s171.4-78.2,171.4-174.7
	c0-52.9-23-100.3-59.5-132.3L401,236C448.2,278.9,478,341.5,478,411.3z"/>
<path class="st10" d="M383.3,221.5l-43,44.3c-26.2-17.5-57.5-27.9-91-28.4v2.4h-13.1v-2.1c-23.9,1.5-46.5,7.9-66.8,18.4l-41-43.6
	c35.1-22.4,76.6-35.4,121-35.4C299.3,177,345.6,193.5,383.3,221.5z"/>
<polygon points="80.4,253.1 80.5,254.6 80.4,254.6 "/>
<line class="st4" x1="241.6" y1="322.9" x2="241.6" y2="441.5"/>
<image style="overflow:visible;" width="159" height="196" xlink:href="FCC6CC35.png"  transform="matrix(0.75 0 0 0.75 -283.8721 461.9369)">
</image>
<g>
	<g>
		<line class="st4" x1="-213.7" y1="416.4" x2="-132.2" y2="416.4"/>
		<polygon points="-224.2,415.7 -211.4,423.1 -211.4,408.3 		"/>
	</g>
	<g>
		<line class="st4" x1="-544.1" y1="415.7" x2="-462.7" y2="415.7"/>
		<polygon points="-451.2,415.1 -464.4,408.3 -463.7,423.2 		"/>
	</g>
</g>
<path class="st5" d="M-431.2,46.4c-5.3-1.9-10.5-3.8-15.8-5.8c-3.9-1.4-7.7-2.8-11.8-3.5c-8.8-1.5-17.8,0.6-26.6,1.6
	c-17.1,1.8-36.2,5.7-51.8-1.4c-5.9-2.6-13.4-0.5-17.1,4.8c-1.5,2.2-2.4,4.7-4.2,6.6c-2.4,2.4-6.3,3.2-9.4,1.8s-4.4-5.6-4.7-8.9
	c-0.7-6,1.4-12.3,5.6-16.7s10.4-6.8,16.5-6.3c28.4,2,57,0.8,85.3,3.9c9.7,1,19.5,2.3,28.4,6.3c3.6,1.6,7.1,3.7,9,7.1
	C-426.1,39.2-427.9,44.3-431.2,46.4z"/>
<path class="st11" d="M-434.4,66c-0.6,0.9-1.3,1.7-1.9,2.6c-3.6,4.9-7.4,10.7-6,16.6c0.9,3.9,4.1,7,7.7,8.6
	c4.3,1.8,9.6,1.4,13.4-1.2c3.9-2.6,6.1-7.6,5.2-12.2c-0.7-3.3-2.8-6.2-4.8-9c-2.8-4.1-5.4-8.5-7.5-13
	C-430.5,61.1-432.3,63.2-434.4,66z"/>
<g>
	<line class="st6" x1="-343.9" y1="440" x2="-285.3" y2="483.9"/>
	<line class="st7" x1="-341.8" y1="284.5" x2="-341.8" y2="203"/>
	<line class="st4" x1="-341.8" y1="622.7" x2="-341.8" y2="541.3"/>
	<path class="st8" d="M-473.3,224.9c-10.9,8.5-21,18-30.2,28.3v1.5l0.1-0.1l31.2-28.6L-473.3,224.9z"/>
	<path class="st9" d="M-106,411.3c0,129.4-102.4,234.2-228.8,234.2s-228.8-104.9-228.8-234.2V34.5h60v220.1l0.1-0.1l31.2-28.6
		l0.8-0.7l40,40l-1.9,2c-29,20-51.7,48.8-64.3,82.7c-7.2,19.3-11.1,40.2-11.1,62.1c0,96.5,76.8,174.7,171.4,174.7
		S-166,508.6-166,412.1c0-52.9-23-100.3-59.5-132.3l42.5-43.8C-135.7,278.9-106,341.5-106,411.3z"/>
	<path class="st10" d="M-200.7,221.5l-43,44.3c-26.2-17.5-57.5-27.9-91-28.4v2.4h-13.1v-2.1c-23.9,1.5-46.5,7.9-66.8,18.4l-41-43.6
		c35.1-22.4,76.6-35.4,121-35.4C-284.7,177-238.3,193.5-200.7,221.5z"/>
	<polygon points="-503.5,253.1 -503.4,254.6 -503.5,254.6 	"/>
	<line class="st4" x1="-342.4" y1="322.9" x2="-342.4" y2="441.5"/>
</g>
</svg>
