<?xml version="1.0" encoding="utf-8"?>
<!-- Generator: Adobe Illustrator 24.1.1, SVG Export Plug-In . SVG Version: 6.00 Build 0)  -->
<svg version="1.1" xmlns="http://www.w3.org/2000/svg" xmlns:xlink="http://www.w3.org/1999/xlink" x="0px" y="0px"
	 viewBox="0 0 6633.09 1366.78" style="enable-background:new 0 0 6633.09 1366.78;" xml:space="preserve">
<style type="text/css">
	.st0{fill:#010101;}
	.st1{fill:#0A0B0D;}
	.st2{fill:none;stroke:#3C63AE;stroke-width:5;stroke-miterlimit:10;}
	.st3{fill:none;stroke:#010101;stroke-width:4;stroke-miterlimit:10;}
	.st4{opacity:0.26;fill:#010101;enable-background:new    ;}
	.st5{fill:#3C63AE;stroke:#010101;stroke-width:4;stroke-miterlimit:10;}
	.st6{fill:none;stroke:#0A0B0D;stroke-miterlimit:10;}
</style>
<g id="Guides">
	<path class="st0" d="M73,1010.49v-921h264v312.73c26.66-30.03,56.34-52.66,89.06-67.89c32.7-15.22,67.81-22.84,105.31-22.84
		c89.16,0,160.72,32.92,214.69,98.73C800.02,476.05,827,563.74,827,673.3c0,108.73-26.78,196.11-80.31,262.14
		c-53.55,66.03-124.08,99.05-211.58,99.05c-45.84,0-87.09-8.84-123.75-26.52c-36.67-17.67-69.59-44.59-98.75-80.78v83.3H73z
		 M334.5,677.8c0,49.11,9.8,87.5,29.41,115.17c19.59,27.69,46.92,41.52,81.97,41.52c34.63,0,61.63-13.73,81.03-41.2
		C546.3,765.82,556,727.33,556,677.8c0-53.69-8.97-93.33-26.91-118.92s-45.69-38.39-83.22-38.39c-37.97,0-66.02,12.91-84.16,38.7
		C343.56,585,334.5,624.53,334.5,677.8z"/>
	<path class="st0" d="M2540.87,1010.49h-239.61v-83.3c-29.19,36.19-62.23,63.11-99.14,80.78s-78.28,26.52-124.16,26.52
		c-87.16,0-157.63-33-211.41-99c-53.8-66-80.69-153.36-80.69-262.06c0-107.86,27-195.31,81-262.36s123.53-100.58,208.59-100.58
		c40.86,0,77.86,7.72,111.02,23.13c33.16,15.42,63.28,38.75,90.39,70V89.49h264V1010.49z M2167.99,834.49
		c34.63,0,61.84-13.83,81.66-41.52c19.81-27.67,29.72-66.06,29.72-115.17c0-53.27-9.19-92.8-27.53-118.61
		c-18.36-25.8-46.31-38.7-83.84-38.7c-37.55,0-65.28,12.8-83.22,38.39s-26.91,65.23-26.91,118.92c0,49.53,9.69,88.02,29.09,115.48
		C2106.35,820.75,2133.37,834.49,2167.99,834.49z"/>
	<path class="st0" d="M2709.4,1278.49v-201h76.89c26.25,0,45.22-4.5,56.89-13.45c11.66-8.98,17.5-23.7,17.5-44.16
		c0-8.78-1.16-18.58-3.44-29.44c-2.3-10.84-5.94-23.16-10.94-36.94L2618.4,330.49h274.16l118.78,412.25l115.64-412.25h254.42
		l-220.05,676.88c-25,75.8-44.28,127.75-57.83,155.88c-13.55,28.09-28.03,49.44-43.44,64.03c-20.42,20.41-45.02,34.88-73.77,43.42
		c-28.75,8.52-75.42,12.8-140.02,12.8c-18.77,0-39.81-0.42-63.16-1.25C2759.81,1281.39,2735.23,1280.14,2709.4,1278.49z"/>
	<path class="st0" d="M3776.88,758.05c0,22.91,6.64,39.03,19.94,48.39c13.3,9.38,36.98,14.05,71.05,14.05
		c9.97,0,17.55-0.09,22.73-0.31c5.19-0.2,10.28-0.52,15.28-0.94v196.14c-33.33,2.03-63.63,3.55-90.91,4.58
		c-27.28,1.02-52.8,1.53-76.55,1.53c-85.81,0-145.69-14.39-179.63-43.2c-33.95-28.8-50.92-79.31-50.92-151.53V486.49h-96v-156h96
		v-210h269v210h126.5v156h-126.5V758.05z"/>
	<path class="st0" d="M4032.36,261.49v-195h273v195H4032.36z M4032.36,1010.49v-680h273v680H4032.36z"/>
	<path class="st0" d="M4471.91,1010.49v-680h245.39v99.69c30.06-40.06,63.91-69.69,101.5-88.89c37.59-19.19,80.84-28.8,129.72-28.8
		c44.69,0,83.23,9.39,115.61,28.17s61.3,48.63,86.78,89.52c32.97-40.89,69.08-70.94,108.31-90.14
		c39.23-19.19,83.48-28.8,132.73-28.8c80.14,0,142.33,20.67,186.58,62.02s66.38,99.38,66.38,174.11v463.13h-266V646.74
		c0-42.5-7.23-73.33-21.7-92.5c-14.47-19.16-37.83-28.75-70.09-28.75c-33.13,0-57.44,10-72.94,30c-15.52,20-23.27,51.25-23.27,93.75
		v361.25h-265V656.11c0-46.66-7.45-80.09-22.33-100.31c-14.88-20.2-39.3-30.31-73.25-30.31c-30.19,0-53.13,10.22-68.84,30.63
		c-15.72,20.42-23.58,50.22-23.58,89.38v365H4471.91z"/>
	<path class="st0" d="M6257.07,808.49h259c-18.77,74.3-59.94,130.53-123.5,168.72c-63.58,38.19-147.47,57.28-251.69,57.28
		c-116.72,0-209.38-32.39-277.95-97.17s-102.86-151.95-102.86-261.52c0-114.14,35.02-204.23,105.06-270.27
		s165.31-99.05,285.81-99.05c120.91,0,215.66,35.92,284.25,107.77c68.58,71.84,102.88,171.5,102.88,298.94v16.3l-507,0.63
		c1.25,43.25,12.69,76.63,34.33,100.13s51.81,35.25,90.53,35.25c26.22,0,48.06-4.91,65.55-14.72S6250.82,826.86,6257.07,808.49z
		 M6031.07,593.49h241c-2.92-42-14.61-73.5-35.06-94.5s-49.88-31.5-88.25-31.5c-35.48,0-63.55,11.13-84.2,33.38
		S6032.73,553.99,6031.07,593.49z"/>
	<g>
		<path class="st1" d="M1316.48,187.12c23.07-2.45,45.15-8.8,66.6-17.47c7.68-3.11,10.21-9.2,7.01-16.87
			c-2.18-5.24-4.54-10.42-7.08-15.48c-3.64-7.24-8.83-9.2-16.47-6.21c-16.66,6.52-33.72,11.46-51.47,13.99
			c-25.65,3.65-50.97,1.52-76.12-4.02c-21.26-4.69-42.19-10.63-63.07-16.75h-135.42c-4.07,5.1-4.2,10.58-1.86,16.48
			c1.63,4.1,2.82,8.37,4.27,12.55c2.77,7.96,7.65,10.89,15.68,8.8c18.34-4.78,36.95-6.33,55.83-5.39
			c21.74,1.07,42.71,6.27,63.57,11.96c24.04,6.57,48,13.49,72.7,17.24c3.45,0.52,4.43,2.15,4.41,5.35
			c-0.08,17.21-0.13,34.41,0.04,51.61c0.04,4.22-1.68,5.49-5.63,5.46c-14.99-0.12-29.98-0.05-44.98-0.04
			c-3.64,0-7.29,0.09-10.75,1.32c-6.79,2.41-11.09,7.17-12.41,14.28c-0.57,3.08-0.69,6.27-0.69,9.41
			c-0.06,27.46-0.02,54.91-0.04,82.38c-0.01,6.67-0.36,7.39-6.89,6.88c-1.96-0.15-3.77-0.09-5.45,0.2l218.7-0.36
			c-2.59-0.63-2.59-2.73-2.59-8.65c0-27.77-0.02-55.54,0.01-83.31c0.01-5.87-1.24-11.22-5.27-15.75c-4.5-5.05-10.4-6.31-16.71-6.34
			c-14.99-0.09-29.98-0.05-44.97-0.08c-6.65-0.02-6.99-0.33-7.01-6.94c-0.03-15.78,0.11-31.56-0.09-47.34
			C1310.27,189.46,1311.96,187.61,1316.48,187.12z"/>
		<path d="M1037.29,297.95c-13.46-0.03-23.58-11.14-21.86-24.54c1.51-11.78,5.88-22.85,9.67-34.02c3.29-9.69,6.89-19.28,10.37-28.91
			c0.37-1.01,0.59-2.44,1.8-2.55c1.35-0.13,1.57,1.34,1.93,2.34c7.31,20.13,15.42,40.01,19.9,61.03
			C1062.13,285.53,1051.72,297.99,1037.29,297.95z"/>
		<g>
			<line class="st2" x1="1272.04" y1="499.91" x2="1272.04" y2="376.83"/>
			<line class="st3" x1="1269.63" y1="1010.88" x2="1269.63" y2="887.8"/>
			<line class="st3" x1="1463.14" y1="727.91" x2="1586.2" y2="727.91"/>
			<line class="st3" x1="963.97" y1="727.91" x2="1087.04" y2="727.91"/>
			<path class="st4" d="M1071.01,409.87c-16.43,12.83-31.7,27.11-45.64,42.69v2.29l0.13-0.12l47.08-43.17L1071.01,409.87z"/>
			<path class="st5" d="M1625.9,691.47c0,195.42-154.73,353.83-345.61,353.83c-0.4,0-0.8,0-1.19-0.01
				c-173.94-0.6-317.61-132.75-341.06-304.34c-0.38-2.79-0.73-5.6-1.04-8.41c-0.23-1.99-0.44-3.99-0.62-5.99
				c-0.11-1.17-0.23-2.34-0.32-3.52c-0.13-1.49-0.25-2.98-0.36-4.49c-0.22-2.95-0.41-5.91-0.55-8.87c-0.02-0.32-0.03-0.62-0.04-0.93
				c-0.14-2.76-0.23-5.52-0.3-8.29c-0.08-3.04-0.11-6.08-0.11-9.14c0-92.48,34.38-176.68,90.69-239.74v3.25l0.14-0.12l47.08-43.16
				l0.01-0.01l1.14-1.04l60.46,60.45l-2.93,3.03c-43.81,30.23-78.05,73.76-97.13,124.92c-10.88,29.13-16.83,60.74-16.83,93.78
				c0,145.77,115.93,263.93,258.95,263.93c143.01,0,258.94-118.16,258.94-263.93c0-79.87-34.81-151.47-89.82-199.85l62.47-64.32
				l1.74-1.79C1580.94,491.56,1625.9,586.14,1625.9,691.47z"/>
			<path class="st1" d="M1482.82,404.73l-65.02,66.93c-39.63-26.43-86.8-42.07-137.51-42.86v3.55h-19.81v-3.11
				c-36.16,2.22-70.31,12-100.95,27.8l-62-65.93c53.02-33.91,115.66-53.48,182.76-53.48
				C1355.95,337.64,1425.92,362.52,1482.82,404.73z"/>
			<polygon class="st0" points="1025.37,452.56 1025.51,454.73 1025.37,454.85 			"/>
			<line class="st3" x1="1268.78" y1="557.95" x2="1268.78" y2="737.13"/>
			<line class="st2" x1="1268.78" y1="737.13" x2="1379.35" y2="737.13"/>
			<path class="st6" d="M1621.13,691.32c0,195.09-153.02,353.32-342.03,353.98c-0.39,0.01-0.79,0.01-1.19,0.01
				c-173.22,0-316.47-132.35-339.88-304.35c-0.38-2.79-0.73-5.59-1.04-8.41c-0.23-1.99-0.44-3.99-0.62-5.99
				c-0.11-1.17-0.23-2.34-0.32-3.52c-0.13-1.49-0.25-2.98-0.36-4.49c-0.22-2.95-0.4-5.91-0.55-8.87c-0.02-0.32-0.03-0.62-0.04-0.93
				c-0.14-2.76-0.23-5.52-0.3-8.29c-0.08-3.04-0.11-6.08-0.11-9.14c0-92.48,34.38-176.68,90.69-239.74
				c62.73-70.25,152.65-114.26,252.54-114.26c13.69,0,27.18,0.83,40.45,2.43c60.57,7.33,116.31,30.93,163.02,66.45
				c9.18,6.98,18.02,14.42,26.47,22.3C1577.41,493.28,1621.13,587.04,1621.13,691.32z"/>
		</g>
	</g>
</g>
<g id="Artwork">
</g>
<g id="Tshirt_Thumbnail">
</g>
<g id="Text">
</g>
</svg>
